<svg width="156" height="156" viewBox="0 0 156 156" fill="none" xmlns="http://www.w3.org/2000/svg">
<rect width="155.52" height="155.52" rx="24" fill="#3BC9FB" fill-opacity="0.2"/>
<circle cx="78" cy="78" r="48" fill="#3C68FF"/>
<g clip-path="url(#clip0_79_81)">
<path d="M71.132 89.684C69.242 94.608 63.776 97.708 58.006 98.006C58.284 92.462 61.374 86.79 66.424 84.88L67.444 85.922C64.376 88.968 63.322 91.452 63.156 92.844C64.564 92.674 67.168 91.628 70.122 88.652L71.132 89.684ZM68.86 67C65.304 66.98 60.736 68.822 57.328 72.228C56.028 73.526 54.884 75.044 54 76.744C57.076 74.418 60.456 73.774 64.294 75.928C65.426 72.94 66.934 69.9 68.86 67ZM79.268 102C80.972 101.12 82.488 99.974 83.79 98.672C87.206 95.26 89.034 90.67 88.998 87.108C85.848 89.168 82.748 90.652 80.066 91.7C82.22 95.54 81.594 98.928 79.268 102ZM101.892 54.088C101.036 54.028 100.196 54 99.37 54C80.694 54 70.44 68.852 67.168 80.018L76.024 88.874C87.584 85.164 102 75.32 102 56.888V56.77C101.996 55.896 101.962 55.002 101.892 54.088ZM90 70C87.79 70 86 68.21 86 66C86 63.79 87.79 62 90 62C92.21 62 94 63.79 94 66C94 68.21 92.21 70 90 70Z" fill="white"/>
</g>
<defs>
<clipPath id="clip0_79_81">
<rect width="48" height="48" fill="white" transform="translate(54 54)"/>
</clipPath>
</defs>
</svg>
