<svg width="650" height="651" viewBox="0 0 650 651" fill="none" xmlns="http://www.w3.org/2000/svg">
    <rect y="0.187012" width="300" height="300" fill="#FEC846"/>
    <rect x="350" y="0.187012" width="300" height="300" fill="#3C68FF"/>
    <rect y="350.187" width="300" height="300" fill="#3BC9FB"/>
    <rect x="350" y="350.187" width="300" height="300" fill="#FEC846"/>
    <path d="M521.5 520.833L535.203 508.246C535.606 507.876 535.833 507.374 535.833 506.85V489.562C535.833 488.253 535.267 486.997 534.259 486.071C533.251 485.145 531.884 484.625 530.458 484.625V484.625C529.033 484.625 527.666 485.145 526.658 486.071C525.65 486.997 525.083 488.253 525.083 489.562V504.375" stroke="white" stroke-width="4" stroke-linecap="round" stroke-linejoin="round"/>
    <path d="M521.5 507.667L524.574 504.842C524.736 504.694 524.864 504.518 524.951 504.324C525.039 504.131 525.084 503.923 525.083 503.713C525.083 503.417 524.993 503.127 524.823 502.876C524.654 502.624 524.411 502.421 524.123 502.288L522.536 501.561C521.191 500.943 519.668 500.729 518.184 500.95C516.7 501.171 515.329 501.815 514.265 502.792L511.058 505.738C509.714 506.972 508.959 508.646 508.958 510.392V520.833M478.5 520.833L464.797 508.246C464.394 507.876 464.167 507.374 464.167 506.85V489.562C464.167 488.253 464.733 486.997 465.741 486.071C466.749 485.145 468.116 484.625 469.542 484.625V484.625C470.967 484.625 472.334 485.145 473.342 486.071C474.35 486.997 474.917 488.253 474.917 489.562V504.375" stroke="white" stroke-width="4" stroke-linecap="round" stroke-linejoin="round"/>
    <path d="M478.5 507.667L475.425 504.842C475.264 504.694 475.136 504.518 475.049 504.324C474.961 504.131 474.917 503.923 474.917 503.713V503.713C474.917 503.111 475.289 502.561 475.877 502.288L477.464 501.56C478.809 500.943 480.332 500.729 481.816 500.95C483.3 501.171 484.671 501.815 485.735 502.792L488.942 505.738C490.286 506.972 491.041 508.646 491.042 510.392V520.833M505.973 494.5H494.027V486.82H485.667V475.846H494.027V468.167H505.973V475.846H514.333V486.82H505.973V494.5V494.5Z" stroke="white" stroke-width="4" stroke-linecap="round" stroke-linejoin="round"/>
    <g clip-path="url(#clip0_79_153)">
    <path d="M547 178.749H536.581C538.05 180.302 539.167 182.031 539.932 183.935C540.697 185.839 541.094 187.861 541.125 189.999H535.25C535.25 188.447 534.944 186.996 534.332 185.649C533.72 184.301 532.879 183.1 531.808 182.045C530.737 180.991 529.497 180.185 528.09 179.628C526.682 179.072 525.152 178.779 523.5 178.749C521.878 178.749 520.364 179.042 518.956 179.628C517.549 180.214 516.294 181.02 515.192 182.045C514.091 183.071 513.249 184.257 512.668 185.605C512.087 186.953 511.781 188.417 511.75 189.999H505.875C505.875 188.447 505.569 186.996 504.957 185.649C504.345 184.301 503.504 183.1 502.433 182.045C501.362 180.991 500.122 180.185 498.715 179.628C497.307 179.072 495.777 178.779 494.125 178.749C492.503 178.749 490.989 179.042 489.581 179.628C488.174 180.214 486.919 181.02 485.817 182.045C484.716 183.071 483.874 184.257 483.293 185.605C482.712 186.953 482.406 188.417 482.375 189.999H476.5C476.5 188.476 476.714 186.982 477.143 185.517C477.571 184.052 478.168 182.69 478.933 181.43C479.698 180.17 480.661 178.998 481.824 177.914C482.987 176.83 484.257 175.937 485.634 175.234C484.593 174.208 483.798 173.022 483.247 171.674C482.696 170.327 482.406 168.935 482.375 167.499C482.375 165.478 482.895 163.618 483.936 161.918C484.976 160.219 486.414 158.857 488.25 157.831V144.999C488.25 144.121 488.449 143.286 488.847 142.495C489.244 141.704 489.826 141.044 490.591 140.517C488.908 138.378 486.842 136.723 484.395 135.551C481.947 134.379 479.315 133.779 476.5 133.749C474.052 133.749 471.772 134.189 469.661 135.068C467.55 135.947 465.683 137.148 464.062 138.671C462.44 140.195 461.17 141.996 460.252 144.077C459.334 146.157 458.875 148.339 458.875 150.624H453C453 148.486 453.306 146.42 453.918 144.428C454.53 142.436 455.402 140.546 456.534 138.759C457.666 136.972 459.059 135.39 460.711 134.013C462.363 132.636 464.169 131.45 466.127 130.454C463.832 128.871 462.057 126.894 460.803 124.521C459.548 122.148 458.906 119.599 458.875 116.874C458.875 114.56 459.334 112.377 460.252 110.327C461.17 108.276 462.424 106.489 464.016 104.965C465.607 103.442 467.473 102.226 469.615 101.318C471.757 100.41 474.052 99.9701 476.5 99.9994C478.917 99.9994 481.197 100.439 483.339 101.318C485.481 102.197 487.347 103.398 488.938 104.921C490.53 106.445 491.799 108.246 492.748 110.327C493.697 112.407 494.156 114.589 494.125 116.874C494.125 119.599 493.498 122.148 492.243 124.521C490.989 126.894 489.199 128.886 486.873 130.497C488.954 131.494 490.836 132.739 492.519 134.233C494.201 135.727 495.64 137.441 496.833 139.374H513.219C514.167 139.374 514.993 139.243 515.697 138.979C516.401 138.715 517.059 138.364 517.671 137.924C518.283 137.485 518.91 137.031 519.553 136.562C520.195 136.093 520.899 135.639 521.664 135.2C522.429 134.76 523.316 134.423 524.326 134.189C525.336 133.954 526.529 133.808 527.906 133.749H541.125C541.951 133.749 542.716 133.896 543.42 134.189C544.124 134.482 544.736 134.877 545.256 135.375C545.776 135.873 546.204 136.474 546.541 137.177C546.878 137.88 547.031 138.613 547 139.374V178.749ZM476.5 128.124C478.122 128.124 479.636 127.831 481.044 127.246C482.451 126.66 483.706 125.854 484.808 124.829C485.909 123.803 486.751 122.617 487.332 121.269C487.913 119.921 488.219 118.456 488.25 116.874C488.25 115.322 487.944 113.871 487.332 112.524C486.72 111.176 485.879 109.975 484.808 108.92C483.737 107.866 482.497 107.06 481.09 106.503C479.682 105.947 478.152 105.654 476.5 105.624C474.878 105.624 473.364 105.917 471.956 106.503C470.549 107.089 469.294 107.895 468.192 108.92C467.091 109.946 466.249 111.132 465.668 112.48C465.087 113.828 464.781 115.292 464.75 116.874C464.75 118.427 465.056 119.877 465.668 121.225C466.28 122.573 467.121 123.774 468.192 124.829C469.263 125.883 470.503 126.689 471.91 127.246C473.318 127.802 474.848 128.095 476.5 128.124ZM494.125 173.124C494.951 173.124 495.716 172.978 496.42 172.685C497.124 172.392 497.736 171.996 498.256 171.498C498.776 171 499.204 170.4 499.541 169.697C499.878 168.994 500.031 168.261 500 167.499C500 166.708 499.847 165.976 499.541 165.302C499.235 164.628 498.822 164.042 498.302 163.544C497.782 163.046 497.154 162.636 496.42 162.314C495.686 161.992 494.921 161.845 494.125 161.874C493.299 161.874 492.534 162.021 491.83 162.314C491.126 162.607 490.514 163.002 489.994 163.5C489.474 163.998 489.046 164.599 488.709 165.302C488.372 166.005 488.219 166.738 488.25 167.499C488.25 168.29 488.403 169.023 488.709 169.697C489.015 170.371 489.428 170.956 489.948 171.454C490.468 171.953 491.096 172.363 491.83 172.685C492.564 173.007 493.329 173.154 494.125 173.124ZM523.5 173.124C524.326 173.124 525.091 172.978 525.795 172.685C526.499 172.392 527.111 171.996 527.631 171.498C528.151 171 528.579 170.4 528.916 169.697C529.253 168.994 529.406 168.261 529.375 167.499C529.375 166.708 529.222 165.976 528.916 165.302C528.61 164.628 528.197 164.042 527.677 163.544C527.157 163.046 526.529 162.636 525.795 162.314C525.061 161.992 524.296 161.845 523.5 161.874C522.674 161.874 521.909 162.021 521.205 162.314C520.501 162.607 519.889 163.002 519.369 163.5C518.849 163.998 518.421 164.599 518.084 165.302C517.747 166.005 517.594 166.738 517.625 167.499C517.625 168.29 517.778 169.023 518.084 169.697C518.39 170.371 518.803 170.956 519.323 171.454C519.843 171.953 520.471 172.363 521.205 172.685C521.939 173.007 522.704 173.154 523.5 173.124ZM541.125 150.624H527.906C526.529 150.624 525.336 150.493 524.326 150.229C523.316 149.965 522.429 149.614 521.664 149.174C520.899 148.735 520.211 148.281 519.599 147.812C518.987 147.343 518.359 146.889 517.717 146.45C517.074 146.01 516.401 145.673 515.697 145.439C514.993 145.204 514.167 145.058 513.219 144.999H494.125V156.249C495.747 156.249 497.261 156.542 498.669 157.128C500.076 157.714 501.331 158.52 502.433 159.545C503.534 160.571 504.376 161.757 504.957 163.105C505.538 164.453 505.844 165.917 505.875 167.499C505.875 168.935 505.6 170.327 505.049 171.674C504.498 173.022 503.687 174.208 502.616 175.234C505.156 176.581 507.221 178.398 508.812 180.683C510.404 178.398 512.469 176.581 515.009 175.234C513.968 174.208 513.173 173.022 512.622 171.674C512.071 170.327 511.781 168.935 511.75 167.499C511.75 165.947 512.056 164.496 512.668 163.149C513.28 161.801 514.121 160.6 515.192 159.545C516.263 158.491 517.503 157.685 518.91 157.128C520.318 156.572 521.848 156.279 523.5 156.249C525.122 156.249 526.636 156.542 528.044 157.128C529.451 157.714 530.706 158.52 531.808 159.545C532.909 160.571 533.751 161.757 534.332 163.105C534.913 164.453 535.219 165.917 535.25 167.499C535.25 168.496 535.112 169.462 534.837 170.4C534.562 171.337 534.148 172.246 533.598 173.124H541.125V150.624ZM541.125 139.374H527.906C527.202 139.374 526.575 139.448 526.024 139.594C525.474 139.741 524.953 139.931 524.464 140.165C523.974 140.4 523.5 140.693 523.041 141.044C522.582 141.396 522.092 141.777 521.572 142.187C522.062 142.597 522.536 142.963 522.995 143.286C523.454 143.608 523.944 143.901 524.464 144.164C524.984 144.428 525.504 144.633 526.024 144.78C526.545 144.926 527.172 144.999 527.906 144.999H541.125V139.374Z" fill="white"/>
    </g>
    <path d="M177.411 145.218L170.098 138.187C169.641 137.747 169.021 137.501 168.375 137.501C167.729 137.501 167.109 137.747 166.652 138.187L144 159.967V170.312H154.759L177.411 148.532C177.868 148.093 178.124 147.496 178.124 146.875C178.124 146.254 177.868 145.657 177.411 145.218ZM152.741 165.625H148.875V161.908L161.062 150.189L164.928 153.906L152.741 165.625ZM168.375 150.592L164.509 146.875L168.375 143.158L172.241 146.875L168.375 150.592ZM178.125 109.375H161.062V114.062H169.803L151.312 131.842L140.848 121.78C140.391 121.341 139.771 121.094 139.125 121.094C138.479 121.094 137.859 121.341 137.402 121.78L119.625 138.873L123.072 142.188L139.125 126.752L149.589 136.813C150.046 137.253 150.666 137.499 151.312 137.499C151.959 137.499 152.579 137.253 153.036 136.813L173.25 117.377V125.781H178.125V109.375Z" fill="white"/>
    <path d="M114.75 104.688H109.875V165.625C109.875 166.868 110.389 168.06 111.303 168.94C112.217 169.819 113.457 170.312 114.75 170.312H134.25V165.625H114.75V104.688Z" fill="white"/>
    <path d="M181.75 496.969V509.312H114.25V469.812H142.375V464.875H114.25C112.758 464.875 111.327 465.395 110.273 466.321C109.218 467.247 108.625 468.503 108.625 469.812V509.312C108.625 510.622 109.218 511.878 110.273 512.804C111.327 513.73 112.758 514.25 114.25 514.25H136.75V524.125H125.5V529.062H170.5V524.125H159.25V514.25H181.75C183.242 514.25 184.673 513.73 185.727 512.804C186.782 511.878 187.375 510.622 187.375 509.312V496.969H181.75ZM153.625 524.125H142.375V514.25H153.625V524.125Z" fill="white"/>
    <path d="M187.375 479.688V474.75H181.466C181.103 473.205 180.404 471.735 179.407 470.422L183.598 466.744L179.621 463.253L175.43 466.931C173.935 466.056 172.261 465.443 170.5 465.124V459.938H164.875V465.124C163.114 465.443 161.44 466.056 159.945 466.931L155.754 463.253L151.777 466.744L155.968 470.422C154.971 471.735 154.272 473.205 153.909 474.75H148V479.688H153.909C154.272 481.233 154.971 482.702 155.968 484.015L151.777 487.694L155.754 491.184L159.945 487.506C161.44 488.381 163.114 488.995 164.875 489.313V494.5H170.5V489.313C172.261 488.995 173.935 488.381 175.43 487.506L179.621 491.184L183.598 487.694L179.407 484.015C180.404 482.702 181.103 481.233 181.466 479.688H187.375ZM167.688 484.625C166.019 484.625 164.387 484.191 163 483.377C161.612 482.563 160.531 481.406 159.892 480.053C159.254 478.7 159.087 477.211 159.412 475.774C159.738 474.337 160.541 473.018 161.721 471.982C162.901 470.946 164.405 470.241 166.041 469.955C167.678 469.669 169.375 469.816 170.916 470.376C172.458 470.937 173.776 471.886 174.703 473.104C175.63 474.322 176.125 475.754 176.125 477.219C176.123 479.182 175.233 481.065 173.651 482.454C172.069 483.842 169.925 484.623 167.688 484.625V484.625Z" fill="white"/>
    <defs>
    <clipPath id="clip0_79_153">
    <rect width="94" height="90" fill="white" transform="translate(453 100)"/>
    </clipPath>
    </defs>
    </svg>
    