<svg width="156" height="156" viewBox="0 0 156 156" fill="none" xmlns="http://www.w3.org/2000/svg">
<rect width="155.52" height="155.52" rx="24" fill="#3BC9FB" fill-opacity="0.2"/>
<circle cx="78" cy="78" r="48" fill="#3C68FF"/>
<path d="M84 78C84 81.314 81.314 84 78 84C74.686 84 72 81.314 72 78C72 77.602 72.04 77.214 72.114 76.838C75.062 77.92 77.968 75.074 76.924 72.096C77.272 72.036 77.632 72 78 72C81.314 72 84 74.688 84 78ZM78.03 64C62.892 64 54 77.102 54 77.102C54 77.102 63.67 92 78.03 92C93.496 92 102 77.102 102 77.102C102 77.102 93.418 64 78.03 64ZM78 88C72.478 88 68 83.524 68 78C68 72.478 72.478 68 78 68C83.524 68 88 72.478 88 78C88 83.524 83.524 88 78 88Z" fill="white"/>
</svg>
