<svg width="156" height="156" viewBox="0 0 156 156" fill="none" xmlns="http://www.w3.org/2000/svg">
<rect width="155.52" height="155.52" rx="24" fill="#3BC9FB" fill-opacity="0.3"/>
<circle cx="78" cy="78" r="48" fill="#3C68FF"/>
<path d="M78 62C86.822 62 94 69.178 94 78C94 86.822 86.822 94 78 94C69.178 94 62 86.822 62 78C62 69.178 69.178 62 78 62ZM78 58C66.954 58 58 66.954 58 78C58 89.046 66.954 98 78 98C89.046 98 98 89.046 98 78C98 66.954 89.046 58 78 58ZM78 70C82.412 70 86 73.588 86 78C86 82.412 82.412 86 78 86C73.588 86 70 82.412 70 78C70 73.588 73.588 70 78 70ZM78 66C71.372 66 66 71.372 66 78C66 84.628 71.372 90 78 90C84.628 90 90 84.628 90 78C90 71.372 84.628 66 78 66ZM78 74C75.79 74 74 75.792 74 78C74 80.208 75.79 82 78 82C80.21 82 82 80.208 82 78C82 75.792 80.21 74 78 74Z" fill="white"/>
</svg>
